<?xml version="1.0" encoding="UTF-8"?>
<svg version="1.1" xmlns="http://www.w3.org/2000/svg" width="1024" height="1536">
<path d="M0 0 C337.92 0 675.84 0 1024 0 C1024 506.88 1024 1013.76 1024 1536 C686.08 1536 348.16 1536 0 1536 C0 1029.12 0 522.24 0 0 Z " fill="#FEFEFE" transform="translate(0,0)"/>
<path d="M0 0 C1.84815308 0.01353516 1.84815308 0.01353516 3.73364258 0.02734375 C23.51458133 0.40246131 42.59695627 6.74780517 57.25 20.4375 C58.07757812 21.17484375 58.90515625 21.9121875 59.7578125 22.671875 C75.28747599 37.20422065 85.76509988 58.66004348 86.4921875 79.96875 C86.97989182 105.79174364 81.01083462 128.91343502 62.80517578 147.9543457 C48.16664989 162.75979012 27.50691534 173.94544177 6.25 174.4375 C5.2084375 174.48777344 4.166875 174.53804687 3.09375 174.58984375 C-22.15324223 175.30062619 -43.39943839 165.53117383 -61.75 148.4375 C-79.77851487 129.55590083 -86.64035209 106.065853 -86.1171875 80.3671875 C-85.23767212 61.04903768 -76.7782293 42.61888707 -63.75 28.4375 C-63.01394531 27.60992188 -62.27789062 26.78234375 -61.51953125 25.9296875 C-45.5149179 8.85461877 -23.27914457 -0.20480655 0 0 Z " fill="#535FB4" transform="translate(518.75,635.5625)"/>
<path d="M0 0 C10.37991358 7.65896536 17.37101591 17.91005645 19.4140625 30.78125 C20.72765974 43.79407262 16.41140753 55.57604898 8.4140625 65.78125 C0.88877528 74.04185634 -9.79398025 79.49095209 -21.00390625 80.15234375 C-34.16066133 80.49078559 -44.19932785 78.40840175 -54.5546875 69.72265625 C-63.90081581 60.78991439 -68.63212372 50.28057412 -68.9609375 37.40625 C-69.00781193 24.59488291 -64.63396011 13.91093346 -55.5859375 4.78125 C-40.19293135 -9.63927381 -17.73381447 -11.48475604 0 0 Z " fill="#535EB3" transform="translate(667.5859375,809.21875)"/>
<path d="M0 0 C12.48245396 6.78657691 20.75512568 16.50076437 24.99609375 30.19140625 C27.2198092 41.47624261 25.12513011 53.28542218 19.2265625 63.0625 C11.99276898 73.53643021 3.39016055 80.45173276 -9.1484375 83.6875 C-21.0899017 85.74933555 -31.64003418 83.83899453 -41.8359375 77.125 C-51.32369692 69.95207113 -58.02255302 61.09368392 -60.5859375 49.3125 C-61.70343593 36.53602487 -61.10362924 25.1919729 -53.3359375 14.5625 C-40.35829099 -0.83470773 -19.35338555 -8.62813474 0 0 Z " fill="#525EB3" transform="translate(410.5859375,804.6875)"/>
<path d="M0 0 C0.7734375 0.43570313 1.546875 0.87140625 2.34375 1.3203125 C12.50206886 7.51688701 17.90581518 15.92646657 22 27 C24.56071399 39.2448687 22.96491874 51.19102622 16.1875 61.875 C15.15679723 63.27399359 14.09486963 64.65063283 13 66 C12.49855469 66.62519531 11.99710938 67.25039063 11.48046875 67.89453125 C4.22028721 76.0026172 -6.5006599 80.30679141 -17.203125 81.1796875 C-29.51801062 81.56721887 -40.77783641 77.49732862 -50.375 69.75 C-54.60230687 65.75998479 -57.41380112 61.17239777 -60 56 C-60.34160156 55.33742188 -60.68320312 54.67484375 -61.03515625 53.9921875 C-64.73188615 45.2232003 -64.69569047 32.30193732 -61.375 23.4375 C-60.63401962 21.93230293 -59.84224179 20.45096482 -59 19 C-58.57589844 18.23558594 -58.15179687 17.47117187 -57.71484375 16.68359375 C-51.8974066 7.1066986 -43.00205783 -0.38456113 -32.13452148 -3.54199219 C-21.94703753 -5.7279375 -9.00757115 -5.41126476 0 0 Z " fill="#525EB3" transform="translate(660,558)"/>
<path d="M0 0 C1.39745367 1.03278966 2.77408766 2.09453746 4.125 3.1875 C4.73859375 3.66574219 5.3521875 4.14398437 5.984375 4.63671875 C13.18397568 10.96026182 18.66232219 21.87687801 19.36328125 31.4375 C19.64274475 45.55776106 16.23741605 56.48195919 6.46875 66.96484375 C-2.64862961 75.4156225 -13.9751629 78.71634526 -26.1796875 78.49609375 C-38.04485652 77.50523925 -48.08701694 72.59227111 -56.1875 63.875 C-64.19075219 53.74057017 -67.15298422 41.93539264 -65.875 29.1875 C-63.07509734 16.4924868 -56.40181077 6.78447113 -45.875 -0.8125 C-30.80901812 -8.69259015 -14.73424655 -9.34672443 0 0 Z " fill="#525EB3" transform="translate(417.875,561.8125)"/>
<path d="M0 0 C9.11305181 5.68159403 16.12494687 13.48984275 19.5859375 23.734375 C21.88750782 36.32787298 19.88566935 47.8374403 13.3125 58.75 C7.60916264 66.72041396 -0.36436636 72.10428162 -10 74 C-23.12757093 75.34062568 -33.42060947 74.2770959 -44.25 66.375 C-49.16333291 62.2252777 -52.18292246 57.73642522 -55 52 C-55.33902344 51.40058594 -55.67804688 50.80117188 -56.02734375 50.18359375 C-59.77448838 42.46482116 -59.19732859 31.70417099 -57.12109375 23.546875 C-53.05926883 13.09069205 -46.86484573 5.36451942 -37 0 C-36.25105469 -0.41378906 -35.50210937 -0.82757813 -34.73046875 -1.25390625 C-23.76909366 -6.47101181 -10.72873751 -5.24104993 0 0 Z " fill="#525EB3" transform="translate(339,494)"/>
<path d="M0 0 C8.56818155 5.98464589 14.81941412 13.78311552 17.37890625 24.00390625 C19.23517623 35.88750379 18.04365117 46.93156199 11.046875 56.9296875 C4.37120038 65.05009768 -3.5621526 71.58674259 -14.34179688 72.95019531 C-26.67999495 73.89482211 -36.55495248 72.22075773 -46.390625 64.30859375 C-54.09117819 57.38805349 -59.58798184 48.45341505 -60.5390625 37.98046875 C-60.66557176 25.06387336 -58.40729946 15.32128808 -49.203125 5.6796875 C-35.71357951 -7.19785593 -16.12094722 -9.66113504 0 0 Z " fill="#525EB3" transform="translate(739.203125,497.3203125)"/>
<path d="M0 0 C8.77903454 6.3766636 15.25314052 14.76310109 17.5 25.4921875 C18.73835549 38.14383996 16.77819875 48.92591418 9.24609375 59.42578125 C2.76221347 67.09909818 -5.50795694 71.53797183 -15.50390625 72.73144531 C-28.11600947 73.77084056 -38.03439803 71.55788048 -47.9375 63.2421875 C-52.23430378 59.08998769 -55.08171086 54.92842284 -57.5 49.4921875 C-57.81710937 48.89277344 -58.13421875 48.29335938 -58.4609375 47.67578125 C-62.3060631 39.50929889 -61.69218345 28.99801357 -58.875 20.6171875 C-53.79774373 8.75854395 -46.21930701 1.04980549 -34.1875 -4.0078125 C-22.66271133 -7.68523794 -10.33962212 -6.23608459 0 0 Z " fill="#525EB3" transform="translate(739.5,880.5078125)"/>
<path d="M0 0 C8.82253368 6.44723615 14.50993499 14.92132441 17.4609375 25.45703125 C18.62698769 34.53194363 17.42199319 42.250219 13.4609375 50.45703125 C13.0484375 51.32199219 12.6359375 52.18695312 12.2109375 53.078125 C7.59811323 61.68785667 0.89298864 67.44667913 -8.2265625 70.95703125 C-17.80029162 73.71702523 -28.14999444 74.05141356 -37.26953125 69.7109375 C-38.01847656 69.29714844 -38.76742188 68.88335938 -39.5390625 68.45703125 C-40.70888672 67.82087891 -40.70888672 67.82087891 -41.90234375 67.171875 C-52.01025848 61.07314998 -57.68653453 51.80431211 -60.5390625 40.45703125 C-62.06537445 28.55676168 -59.50018761 19.03223014 -52.8515625 9.14453125 C-40.01393454 -6.56768007 -17.30692683 -10.5172863 0 0 Z " fill="#525EB3" transform="translate(338.5390625,882.54296875)"/>
<path d="M0 0 C9.74097597 6.00451205 16.15976379 13.83149903 19.109375 24.91796875 C21.037329 35.15095538 19.52734021 44.84570925 14.296875 53.8984375 C8.0181465 62.80188037 -0.54168915 69.50418998 -11.3828125 71.61328125 C-23.99092013 72.5819142 -33.34511492 70.33539156 -43.125 62.15625 C-51.81970271 54.18921554 -55.25030869 43.77990009 -55.7578125 32.23828125 C-55.52213029 21.7062323 -50.90248318 13.46579639 -43.828125 5.96484375 C-32.01017613 -5.1745626 -14.47840863 -7.11888513 0 0 Z " fill="#525EB3" transform="translate(383.3828125,690.38671875)"/>
<path d="M0 0 C8.20107807 5.71716441 14.26112384 13.35382761 17 23 C19.00111788 35.04720445 16.79416169 44.94302944 10 55 C4.69232589 62.31423383 -3.57192171 66.19064057 -12 69 C-24.41020606 69.85927647 -34.18568919 68.75347646 -44.1875 60.6875 C-51.95451393 53.4561422 -56.06287517 44.95840292 -56.47314453 34.38232422 C-56.62005661 21.34988736 -53.23347241 12.48667549 -44 3 C-41.47709769 0.91997403 -38.9535703 -0.60808756 -36 -2 C-35.34773437 -2.31710937 -34.69546875 -2.63421875 -34.0234375 -2.9609375 C-22.80712176 -7.53988288 -10.29249862 -6.00269434 0 0 Z " fill="#525EB3" transform="translate(693,692)"/>
<path d="M0 0 C9.78519273 5.67472671 15.63776082 13.20694461 18.890625 23.9765625 C20.97635136 34.28932063 18.5231964 43.30538921 13.5 52.3125 C6.93229541 60.56904292 0.36713011 64.71095663 -9.6875 68.0625 C-20.46818115 68.99662152 -30.47190667 67.364526 -39.13671875 60.51953125 C-47.16539596 52.97621487 -51.90293347 42.94788644 -52.25 31.9375 C-51.76293233 19.9845961 -46.38383408 11.23253905 -37.75 3.25 C-27.62707295 -5.79830634 -11.79824427 -5.49140743 0 0 Z " fill="#525EB3" transform="translate(534.6875,838.9375)"/>
<path d="M0 0 C8.16811842 5.7224318 15.19486808 13.89894264 17 24 C18.00369767 35.99500988 15.79541072 45.68148275 7.98046875 54.99609375 C0.60908969 62.45470807 -7.97989923 66.05659205 -18.375 66.4375 C-27.48957623 66.20324687 -36.27606321 63.33536758 -43 57 C-50.88286061 48.48879543 -53.62017583 39.58973351 -53.47045898 28.18774414 C-53.22871487 22.40071245 -52.24696905 17.88490596 -49 13 C-48.51402344 12.23300781 -48.02804687 11.46601562 -47.52734375 10.67578125 C-36.98958978 -4.39594724 -16.14401019 -9.1056155 0 0 Z " fill="#525EB3" transform="translate(537,545)"/>
<path d="M0 0 C6.0341056 4.80682989 11.46171793 11.76701298 12.82421875 19.52734375 C13.75304255 29.77485881 12.20813558 38.79590992 5.57421875 46.90234375 C-0.22457569 52.96189768 -7.06327496 57.01189763 -15.5078125 57.86328125 C-23.02876961 57.94769154 -28.72584054 57.51957011 -35.17578125 53.52734375 C-36.22185547 52.90859375 -36.22185547 52.90859375 -37.2890625 52.27734375 C-44.0495431 47.79581989 -48.34431777 41.18625657 -50.55078125 33.40234375 C-52.08757169 23.87424302 -51.1547339 15.30400468 -45.42578125 7.27734375 C-33.83502904 -6.85423837 -15.70883333 -10.63237014 0 0 Z " fill="#525DB3" transform="translate(262.17578125,954.47265625)"/>
<path d="M0 0 C8.22909552 4.87919823 13.24018399 11.12652631 16.20703125 20.30859375 C17.67113146 30.39962286 16.17514335 39.69768324 10.25390625 48.0703125 C4.2645387 55.24289427 -2.59707131 59.65212591 -12.01953125 60.51171875 C-22.11969292 60.70911605 -30.36976554 58.34866389 -37.79296875 51.30859375 C-44.15604707 44.59922545 -46.79144352 37.10622618 -47.29296875 27.93359375 C-47.00571621 19.47161265 -43.76926955 11.96276265 -37.98046875 5.80859375 C-27.7473427 -3.51362903 -12.63822709 -6.05712708 0 0 Z " fill="#525DB3" transform="translate(803.79296875,948.69140625)"/>
<path d="M0 0 C8.25284505 5.06553937 14.07133859 12.64501624 16.375 22.0625 C17.67341666 31.76331409 14.73161553 40.08461671 9.1796875 47.984375 C3.89860095 54.06562618 -3.11944214 57.53123241 -11.0703125 58.46875 C-21.13228061 58.72510588 -28.75592771 57.04231891 -36.55859375 50.421875 C-38.15074882 48.72251747 -39.38777593 47.03304562 -40.625 45.0625 C-41.03492188 44.45277344 -41.44484375 43.84304688 -41.8671875 43.21484375 C-46.27900154 35.31921793 -46.10496517 24.59813894 -43.8125 16.0234375 C-40.48347271 8.55624435 -34.56167765 3.1186899 -27.38671875 -0.62890625 C-19.12045832 -3.50450048 -8.06210811 -3.62356026 0 0 Z " fill="#525DB3" transform="translate(804.625,439.9375)"/>
<path d="M0 0 C6.78218302 5.28364354 11.02443857 12.628213 12.24609375 21.1328125 C12.5734871 31.16196223 10.38497475 39.64643322 3.4375 47.06640625 C-3.80815802 53.59582681 -11.71649404 56.13235669 -21.42578125 55.90625 C-29.75935032 54.99942912 -36.85727163 50.96289397 -42.26171875 44.59765625 C-47.51366672 36.00118421 -49.08031037 28.64294486 -48.26171875 18.59765625 C-46.03916635 9.77439098 -39.48682971 2.49285127 -32 -2.4375 C-21.6888383 -8.16077402 -9.63445203 -5.97369306 0 0 Z " fill="#525EB3" transform="translate(269.26171875,439.40234375)"/>
<path d="M0 0 C5.05501689 4.63022555 8.21602808 11.41664974 9.328125 18.09765625 C9.63560037 26.60813515 7.27271893 33.27452563 2.625 40.3125 C-4.38710963 47.01296032 -11.70833222 49.34599359 -21.28125 49.3828125 C-28.66776872 49.21268155 -33.81249428 47.06120064 -39.24609375 42.1328125 C-46.41322296 34.47396757 -47.83990446 28.12023823 -47.59375 17.73046875 C-46.78364275 10.29150318 -43.7541119 5.16576 -38.375 0.0625 C-26.41898687 -9.34260124 -12.34522625 -7.74602431 0 0 Z " fill="#525DB3" transform="translate(331.1875,627)"/>
<path d="M0 0 C6.93017648 4.42646003 11.46105081 9.22089478 13.95703125 17.25 C15.23497725 26.38619287 14.01298058 34.78602682 8.44921875 42.28125 C3.479413 47.73647864 -3.79739518 51.67241879 -11.20703125 52.48828125 C-20.71631818 52.77506927 -27.37215005 49.60609537 -34.31640625 43.1875 C-39.95856479 36.85602797 -41.41001259 29.6490933 -41.3203125 21.38671875 C-40.65202868 13.82852287 -36.7256336 7.20695657 -31.04296875 2.25 C-22.00151006 -4.33925495 -9.95084547 -5.31696381 0 0 Z " fill="#525DB3" transform="translate(320.04296875,773.75)"/>
<path d="M0 0 C6.62578029 3.93965315 10.94963756 8.80163881 14.3125 15.6875 C16.22442906 24.89952185 15.4450348 32.08638116 10.8359375 40.36328125 C8.10512624 44.28519104 5.18100867 46.73462458 1 49 C0.38382813 49.33644531 -0.23234375 49.67289063 -0.8671875 50.01953125 C-7.65231086 53.10239851 -15.15379997 53.24283575 -22.19140625 50.96875 C-30.5812979 47.18857353 -35.72095451 42.15262458 -39.4375 33.75 C-40.92938336 23.80411093 -41.02522656 15.42614172 -35 7 C-26.04531153 -3.52289533 -12.21418806 -5.7708242 0 0 Z " fill="#525DB3" transform="translate(737,624)"/>
<path d="M0 0 C6.42088306 3.92194479 12.31397555 8.78157562 14.16796875 16.32421875 C15.19577876 25.63324086 15.26881428 34.65579485 9.16796875 42.32421875 C2.70033202 48.68485414 -3.50240914 51.58728993 -12.64453125 51.76171875 C-20.67832584 51.60965955 -25.32834536 49.68217074 -31.0859375 44.1640625 C-37.93910424 36.82050815 -39.50107091 31.1543164 -39.20703125 21.12890625 C-38.51401412 14.09766993 -35.73673577 8.8121534 -30.64453125 3.94921875 C-21.42681316 -3.07380456 -10.54016997 -5.3167229 0 0 Z " fill="#515DB3" transform="translate(740.83203125,775.67578125)"/>
<path d="M0 0 C5.52868548 4.29546992 9.64468928 10.40888321 10.58203125 17.40625 C10.71188125 26.10620004 9.1034811 34.16183373 3.18359375 40.8359375 C-2.01609839 45.47772276 -8.93187156 48.00314542 -15.87890625 48.3359375 C-24.59788444 47.35153674 -30.88806146 44.5870931 -36.75390625 37.8984375 C-40.98769884 31.3397299 -42.63927115 24.66720271 -41.75390625 16.8984375 C-39.51427146 9.23248758 -35.02966614 2.64616129 -28.12890625 -1.4765625 C-19.14071094 -5.80421209 -8.52784694 -5.35601968 0 0 Z " fill="#525DB4" transform="translate(459.75390625,904.1015625)"/>
<path d="M0 0 C6.38375076 3.73171637 10.73387848 8.6996439 13.03125 15.76953125 C14.53914374 22.74353982 14.10551569 29.70649134 10.5 35.9375 C6.01928669 42.27991814 1.19625813 47.09524608 -6.5 48.9375 C-14.88106696 50.11697356 -21.57338038 48.87481364 -28.5 43.9375 C-34.65994719 38.59113074 -37.69919755 32.71328769 -38.8125 24.68359375 C-39.22484838 17.27420878 -36.34599243 11.76078253 -32.375 5.6875 C-23.46390683 -2.83615433 -11.42808858 -5.18050401 0 0 Z " fill="#525DB3" transform="translate(270.5,571.0625)"/>
<path d="M0 0 C6.15859029 3.76220334 9.86089248 9.14920191 12 16 C13.30196708 24.62685507 12.18453664 31.89618778 7 39 C2.19873406 44.20782475 -2.28635085 47.64235854 -9.48828125 48.3359375 C-16.83809016 48.41101216 -22.81893212 48.40844243 -29 44 C-29.886875 43.46375 -30.77375 42.9275 -31.6875 42.375 C-37.15423867 36.76051164 -39.32767769 30.79833945 -39.625 23 C-39.29636192 15.23908538 -37.48280708 9.3820387 -31.83984375 3.90234375 C-22.24307176 -3.90004016 -11.33043138 -5.64375654 0 0 Z " fill="#515DB3" transform="translate(606,901)"/>
<path d="M0 0 C7.4685988 3.3762159 11.00545653 8.56294675 14.87890625 15.53515625 C17.21673807 23.06816989 16.55248257 29.66209662 13.3203125 36.8359375 C9.65092745 43.31452535 4.67108136 47.05833765 -2.32421875 49.49609375 C-10.15513291 51.44237358 -16.66136328 50.75501165 -23.703125 46.76953125 C-31.30123766 41.43661402 -34.77843275 34.99396799 -36.37890625 26.01171875 C-36.9675321 18.92261615 -33.88384937 12.92617355 -29.99609375 7.16015625 C-27.53877043 4.71695548 -25.01048797 2.85651575 -21.99609375 1.16015625 C-21.403125 0.79019531 -20.81015625 0.42023438 -20.19921875 0.0390625 C-14.25784767 -2.33116533 -6.07311612 -1.70237284 0 0 Z " fill="#525DB3" transform="translate(604.99609375,492.83984375)"/>
<path d="M0 0 C6.87555463 4.06862717 10.38563712 9.59441135 12.89453125 17.12109375 C13.88120961 26.0820743 11.64989349 32.86386629 6.14453125 39.93359375 C1.91599656 44.57099439 -4.20219408 47.66646941 -10.453125 48.39453125 C-18.76721589 48.70556199 -25.00883877 46.88392425 -31.21484375 41.18359375 C-37.58830845 34.23072317 -38.75531327 28.21207171 -38.48046875 18.859375 C-37.78169639 11.89348807 -34.7790957 7.43003433 -29.73046875 2.74609375 C-20.76509112 -4.16511813 -10.09990089 -5.25922767 0 0 Z " fill="#525DB3" transform="translate(397.10546875,448.87890625)"/>
<path d="M0 0 C5.76410775 4.64950128 9.39492544 9.1558247 10.2109375 16.640625 C10.48263561 26.05224767 9.04332271 32.96530462 2.6171875 39.984375 C-3.36021573 45.2530481 -10.61110047 46.97417838 -18.40625 46.859375 C-26.10034913 45.91003135 -32.00014204 41.57992654 -36.72265625 35.62109375 C-40.88812445 29.40760369 -42.28790774 22.95004902 -41.12890625 15.5234375 C-38.64808766 7.61358111 -33.79150334 2.29094884 -27.12890625 -2.4765625 C-18.66842475 -6.89072676 -7.65532618 -5.30956568 0 0 Z " fill="#515DB3" transform="translate(457.12890625,498.4765625)"/>
<path d="M0 0 C6.39489644 4.4175906 10.04926075 11.07474177 11.51953125 18.69140625 C11.83392944 26.13216331 9.1321597 32.44025093 4.6875 38.3125 C-0.92620885 43.92620885 -6.76834059 46.10551036 -14.625 46.375 C-21.88848755 46.2952788 -27.40569335 44.19916089 -32.84765625 39.35546875 C-38.72101688 32.9625971 -40.58109186 26.53266605 -40.35546875 17.9375 C-39.59404336 11.64528137 -36.30728626 6.56065604 -32 2 C-21.96674996 -5.80363892 -10.91473093 -5.85492189 0 0 Z " fill="#525DB3" transform="translate(791,573)"/>
<path d="M0 0 C4.91666164 5.38491513 7.88459077 11.00072694 8.1875 18.375 C7.83004809 25.38502908 5.72356696 31.33462947 1.25 36.75 C-5.21552984 41.98400034 -11.45417757 45.58110752 -20.06640625 45.3125 C-27.04200318 43.99055946 -33.6425829 40.44083042 -38 34.8125 C-42.72211576 27.81518302 -43.18616632 21.15690799 -42.375 12.875 C-40.00857074 4.85472353 -34.20424359 0.18597223 -27.33984375 -4.109375 C-18.16267337 -8.8530416 -8.16108602 -5.13846157 0 0 Z " fill="#525DB3" transform="translate(669.375,452.125)"/>
<path d="M0 0 C5.5185042 3.78641894 10.17165229 9.01701902 12.140625 15.46875 C13.01762641 23.11250966 13.01796329 30.0091648 8.6953125 36.56640625 C4.49577395 41.70503759 0.61755045 44.7252658 -5.859375 46.46875 C-13.70533147 47.25152524 -21.46750811 47.60226278 -27.859375 42.46875 C-33.00865538 37.56516093 -36.46095838 33.21386621 -37.23046875 25.98046875 C-37.38768355 16.92674566 -36.63640452 11.41598247 -30.21484375 4.765625 C-21.66070794 -3.1899144 -10.60170424 -5.33898775 0 0 Z " fill="#515DB3" transform="translate(400.859375,947.53125)"/>
<path d="M0 0 C6.30450081 3.58669517 9.69756235 8.20344603 12.5625 14.875 C13.59110114 22.66665364 13.63971357 30.30419548 9.1875 37.0078125 C4.48696838 42.40890412 -1.25458526 46.36026308 -8.453125 47.24609375 C-17.1073854 47.42377784 -22.79553733 46.17009074 -29.21484375 40.23046875 C-34.80281757 34.17796899 -37.10757493 27.94574112 -36.84765625 19.71875 C-35.79433586 12.41572862 -32.0926262 6.48382666 -26.23828125 2.05859375 C-18.08174141 -3.30242918 -8.90880528 -4.12198453 0 0 Z " fill="#525DB3" transform="translate(659.4375,946.125)"/>
<path d="M0 0 C7.10669831 3.1829228 11.54561094 9.32703223 14.5234375 16.34375 C15.40777043 23.21127237 15.62020295 30.5353107 11.91015625 36.6015625 C5.96557959 44.06996022 -0.51421578 47.58490587 -9.9140625 48.78125 C-17.62151482 47.83472077 -23.87840225 45.00886778 -29.0703125 39.16796875 C-33.94528753 32.84404281 -34.11657122 26.88681595 -33.9609375 19.01953125 C-33.07811219 12.32002626 -29.73548486 8.48972624 -24.9765625 3.96875 C-17.08862992 -1.15840617 -9.23491615 -2.44710712 0 0 Z " fill="#515DB3" transform="translate(787.4765625,830.65625)"/>
<path d="M0 0 C4.40960929 3.45796284 7.55510017 7.28424941 9.015625 12.74609375 C9.79708951 19.64231664 10.18480966 26.8168173 6.48046875 32.93359375 C1.29661036 39.34775453 -4.11111094 44.08418621 -12.4453125 45.0234375 C-20.28929349 45.47386218 -26.63560565 43.54214181 -32.61328125 38.32421875 C-38.52650101 31.7578971 -39.56926001 25.45527824 -39.32421875 16.8984375 C-38.51491331 9.39143184 -34.89140445 4.89985097 -29.125 0.22265625 C-20.05658268 -6.03256592 -9.27337628 -5.85975155 0 0 Z " fill="#515DB3" transform="translate(271.984375,833.25390625)"/>
<path d="M0 0 C5.11156863 2.20028048 8.13778077 5.47108334 10.765625 10.33203125 C12.5570807 15.70639834 12.47739128 20.39997691 10.140625 25.51953125 C7.38972595 30.44983976 4.03145833 33.31963763 -1.171875 35.64453125 C-7.3326054 37.02755236 -11.86012122 36.67883282 -17.37109375 33.671875 C-21.64883967 30.59584386 -24.23746521 26.47608574 -25.234375 21.33203125 C-25.75737906 15.05598252 -25.12864715 10.4334228 -21.234375 5.33203125 C-14.92317356 -0.709241 -8.40325073 -2.51216062 0 0 Z " fill="#515DB3" transform="translate(865.234375,395.66796875)"/>
<path d="M0 0 C4.03972242 3.73674324 7.92914723 7.78117819 8.8359375 13.390625 C8.9406429 19.21224512 7.85776484 23.50479126 4.5 28.3125 C0.05398072 32.64451879 -4.11361334 34.39518777 -10.25 34.8125 C-16.21209304 34.66122301 -20.29724977 32.48957152 -24.5 28.3125 C-27.84248788 23.33931049 -29.37146399 18.30381493 -28.5 12.3125 C-26.48751581 6.42202661 -23.55821054 2.86400953 -18.5 -0.6875 C-12.4658316 -2.69888947 -5.73494967 -2.76506502 0 0 Z " fill="#515DB3" transform="translate(841.5,887.6875)"/>
<path d="M0 0 C4.00521387 2.88747977 7.46370991 6.48991981 9.6875 10.9375 C10.21486173 17.14414192 10.44997482 22.71858332 6.6875 27.9375 C2.0686233 32.56729603 -1.41727843 35.06385536 -8.125 35.1875 C-13.49774174 35.10172328 -17.05700134 34.18238455 -20.97265625 30.28515625 C-25.72792392 24.9678002 -26.73709655 20.91611048 -26.65234375 13.796875 C-26.02965862 8.55773114 -23.64264775 5.07397313 -19.80859375 1.55859375 C-13.94242869 -2.49824811 -6.55472113 -2.10245772 0 0 Z " fill="#505CB3" transform="translate(212.3125,885.0625)"/>
<path d="M0 0 C4.43915814 2.51522877 6.80479419 5.46302116 9 10.0625 C10.17101953 15.59822869 9.42370048 20.36156873 7.4375 25.625 C4.52391606 30.09943248 0.8516057 32.93540515 -4.3125 34.3125 C-10.63119357 35.13239968 -15.39290878 34.65091668 -20.6171875 30.84375 C-24.48081157 27.35402504 -26.0355084 24.45918493 -26.6875 19.40625 C-26.87614744 14.64290204 -26.74153381 11.22007152 -24.6875 6.875 C-17.68937478 -0.67560879 -10.04328575 -4.6642975 0 0 Z " fill="#525DB4" transform="translate(336.3125,405.6875)"/>
<path d="M0 0 C4.47413236 2.46605721 7.51255818 5.77511637 9.8125 10.375 C10.30578755 16.22975711 10.66994288 21.56484281 8.125 26.9375 C4.07948648 31.20168992 0.66714795 34.13651678 -5.1875 35.375 C-11.24636263 35.47307511 -15.44976159 34.34147867 -20.1875 30.375 C-25.21397617 24.6692703 -25.5349964 21.09271726 -25.46875 13.58203125 C-24.99151787 8.14025936 -22.60331322 5.6492319 -18.6875 2.125 C-12.5624028 -2.16256804 -6.96386184 -3.15940802 0 0 Z " fill="#515CB3" transform="translate(720.1875,403.625)"/>
<path d="M0 0 C3.63910362 3.04669141 6.17621884 5.71615652 7.6875 10.25 C8.17738853 15.81545491 8.45564541 20.65680952 6 25.75 C1.4840238 30.63213643 -2.37029686 33.95577969 -9.0625 34.625 C-14.46367471 34.46407114 -19.00732016 32.48670915 -22.890625 28.71875 C-27.54989001 23.25616343 -27.65570134 19.48076399 -27.59375 12.45703125 C-27.12012041 7.05633828 -24.72675756 4.58982295 -20.9375 1 C-14.06697371 -3.58035086 -7.25348396 -3.83202926 0 0 Z " fill="#515DB3" transform="translate(191.3125,1021.75)"/>
<path d="M0 0 C5.620425 3.07532689 9.03071001 6.80778951 11.3125 12.8125 C11.92117746 18.2905971 11.07730074 23.05357468 8.3125 27.8125 C4.70365249 31.75407814 1.32778664 34.51961388 -4.140625 35.05078125 C-10.27577907 35.21358562 -15.02032679 35.09175232 -19.6875 30.8125 C-23.46874171 26.72337092 -25.02701309 22.8756368 -25.3125 17.3125 C-25.01909561 11.73781658 -23.50186171 7.89469825 -19.6875 3.8125 C-13.37691231 -1.70421845 -8.02160994 -2.58323032 0 0 Z " fill="#515CB3" transform="translate(860.6875,1017.1875)"/>
<path d="M0 0 C4.60326819 2.51876939 7.42075736 5.47488603 10.3125 9.8125 C11.24638532 16.9985018 11.16890729 23.35316113 6.7421875 29.29296875 C2.58847108 33.70771107 -1.64438783 34.60818878 -7.4375 35.1875 C-12.4554841 35.12196663 -15.87201238 32.91734247 -19.6875 29.8125 C-24.3149084 24.82913711 -24.99432766 20.90974282 -24.8984375 14.3125 C-24.47867773 9.3375694 -22.4097065 6.25895251 -18.75 3.0625 C-12.44864535 -1.56706668 -7.52626677 -2.42371303 0 0 Z " fill="#515CB3" transform="translate(214.6875,522.1875)"/>
<path d="M0 0 C5.82858619 1.95704354 9.38891813 6.01949854 12.25 11.3125 C13.52215172 15.87104366 13.96952506 19.79252766 12.0546875 24.15234375 C9.2350862 28.91374595 6.02331997 32.48834001 1 35 C-4.50158755 35.50239048 -9.38795569 35.76205731 -14.4375 33.375 C-19.96431297 28.25258798 -22.75782702 24.75368121 -23.25 17.125 C-23.15056239 12.24351738 -21.85123853 8.82981216 -18.3125 5.33203125 C-12.279389 0.04049015 -8.07027168 -0.80256845 0 0 Z " fill="#515CB3" transform="translate(833,522)"/>
<path d="M0 0 C4.78553834 2.61850211 8.2624307 5.7099046 10.3125 10.8125 C10.97610439 16.35282503 11.06823895 21.24504144 8.625 26.3125 C4.61954137 30.64272555 1.18204666 33.57086513 -4.6875 34.8125 C-10.74636263 34.91057511 -14.94976159 33.77897867 -19.6875 29.8125 C-24.25482305 24.7514123 -24.99484392 20.94526172 -24.8984375 14.3125 C-24.47867773 9.3375694 -22.4097065 6.25895251 -18.75 3.0625 C-12.44864535 -1.56706668 -7.52626677 -2.42371303 0 0 Z " fill="#515CB3" transform="translate(197.6875,387.1875)"/>
<path d="M0 0 C3.88710228 3.25431819 7.44272957 6.60567684 7.92578125 11.82421875 C8.0870878 18.5906039 7.94530167 22.8717242 3.6875 28.25 C-2.21961328 32.83102662 -7.01841374 33.9142381 -14.3125 33.25 C-19.75439799 31.436034 -23.0908325 27.86737362 -26.3125 23.25 C-27.98567174 18.23048477 -28.26351109 13.0545123 -26.546875 7.9921875 C-23.81999247 2.9416938 -20.1407477 0.32315672 -14.9375 -1.96875 C-9.31800887 -3.6412176 -5.09823406 -2.69340668 0 0 Z " fill="#505CB3" transform="translate(343.3125,999.75)"/>
<path d="M0 0 C4.88062876 1.63875126 8.16687462 4.75031193 11 9 C12.87894454 14.63683363 12.74720942 20.75837174 10.875 26.375 C7.96666789 30.44666495 4.83965762 33.38678079 0 35 C-6.53925935 35.73949621 -11.91443432 35.58261694 -17.33984375 31.60546875 C-21.68618239 27.40230362 -23.21267811 22.8459081 -23.5 16.875 C-23.25145873 11.4650851 -21.43299275 8.28403401 -17.46875 4.5625 C-11.73147287 -0.38730772 -7.42790106 -0.73868629 0 0 Z " fill="#505CB3" transform="translate(708,995)"/>
<path d="M0 0 C2.92066728 2.25391445 4.9355448 4.93749585 6.57421875 8.21484375 C7.11782321 13.16966469 7.13858949 17.08610227 4.88671875 21.58984375 C0.60754813 26.44728067 -2.62432377 28.98138896 -9.17578125 29.52734375 C-15.1518176 29.4284755 -18.78419043 26.89852664 -22.86328125 22.71484375 C-25.19078138 17.50124346 -25.52611855 12.81922838 -24.42578125 7.21484375 C-22.05500045 3.00306557 -19.0470528 0.18760668 -14.92578125 -2.28515625 C-9.09359899 -3.4515927 -4.99990548 -3.15724369 0 0 Z " fill="#505CB3" transform="translate(292.42578125,1041.78515625)"/>
<path d="M0 0 C3.52689662 3.099394 6.82105491 6.39013288 7.30078125 11.203125 C7.45865963 17.28559728 7.31953612 21.08245987 3.0625 25.8125 C-1.19809007 29.67365975 -5.20277555 30.1786762 -10.9140625 30.09375 C-15.47782084 29.45940521 -18.28408692 26.53655233 -21.25 23.25 C-24.15621479 19.05213419 -24.7274169 14.8005146 -23.9375 9.8125 C-22.23385024 5.83967359 -19.95050181 2.76591347 -16.8125 -0.1875 C-11.34097633 -2.09063867 -5.38540686 -2.17707937 0 0 Z " fill="#505CB3" transform="translate(884.9375,940.1875)"/>
<path d="M0 0 C4.02708348 2.61390969 6.4472361 6.11745518 8.3125 10.5 C9.12679384 15.56671722 8.08162077 19.29800629 5.62890625 23.69921875 C3.36299296 26.79888055 0.97702011 28.38743222 -2.6875 29.5 C-7.70693518 30.26365416 -11.45973531 30.09114596 -16.0625 27.875 C-19.76444899 24.52561758 -22.32441157 21.98604424 -23.0703125 16.87890625 C-23.25401008 12.36606908 -23.00862611 9.20647745 -21.125 5.0625 C-14.8510364 -1.53320532 -8.56671716 -3.4847663 0 0 Z " fill="#505CB3" transform="translate(165.6875,939.5)"/>
<path d="M0 0 C3.91311929 2.20350406 6.00067032 4.14739741 7.8125 8.375 C8.55876577 14.03418208 8.58946401 18.73474264 6.125 23.9375 C3.02314779 27.2070199 0.42899202 29.13350523 -4.08984375 29.80859375 C-10.23821801 29.81650672 -14.50064296 29.8215054 -19.1875 25.375 C-23.08268946 19.92548013 -22.962307 14.86400859 -22.1875 8.375 C-20.14496694 3.79972595 -17.4338539 1.29576006 -13.0390625 -0.9296875 C-8.34307347 -2.69316017 -4.44629607 -1.95966382 0 0 Z " fill="#515CB3" transform="translate(169.1875,476.625)"/>
<path d="M0 0 C4.32244863 2.30282177 7.1758505 5.45651653 9 10 C9.70077817 14.93804153 9.55558401 18.88883198 7.3125 23.375 C6.549375 24.24125 5.78625 25.1075 5 26 C4.34 26.78375 3.68 27.5675 3 28.375 C-1.83684889 30.99495981 -6.62871783 30.69965141 -12 30 C-16.97239011 27.86897567 -19.18688095 24.89961985 -21.30078125 20.07421875 C-22.67141155 16.00827077 -22.8338005 12.84529618 -21.046875 8.890625 C-16.09826278 0.30885444 -9.65602117 -1.59656435 0 0 Z " fill="#505BB3" transform="translate(758,1037)"/>
<path d="M0 0 C3.73518007 2.14704694 6.25722748 4.74051616 8.4375 8.4375 C9.44719797 13.03723519 9.47913915 16.66905792 7.875 21.125 C5.07984174 25.41090933 1.95224283 28.34925239 -3 30 C-8.87296559 30.59725074 -12.42605805 29.95630812 -17.30078125 26.546875 C-21.07754276 23.10871969 -22.12732285 18.86273719 -22.4375 13.9375 C-21.80674101 8.2606691 -19.6086922 5.45174662 -15.4375 1.6875 C-10.45543559 -1.76162151 -5.70260308 -1.40837015 0 0 Z " fill="#505CB3" transform="translate(884,483)"/>
<path d="M0 0 C4.0318879 2.34515314 7.24284638 4.52679663 8.81640625 9.05078125 C9.46726447 14.43065995 9.51618406 18.65122562 7.06640625 23.55078125 C2.76371242 28.33155217 -0.14729675 29.70043929 -6.43359375 30.42578125 C-11.36004605 29.93313602 -14.43708995 28.23193425 -18.18359375 25.05078125 C-21.33983251 20.80958542 -21.76867726 16.68125626 -21.59765625 11.51953125 C-20.91790193 7.46665645 -19.13211081 4.85148347 -16.18359375 2.05078125 C-11.12555677 -1.43364422 -5.68731276 -2.47230232 0 0 Z " fill="#515CB3" transform="translate(282.18359375,364.94921875)"/>
<path d="M0 0 C3.37789724 2.25193149 6.10754551 4.15312062 7.8125 7.875 C8.68849242 13.42803023 8.53480419 18.18962357 6.3125 23.375 C2.3534358 27.3340642 -1.6902938 29.40677384 -7.1875 30.4375 C-12.40114989 29.45994065 -16.5729363 26.64581179 -20.125 22.75 C-22.45311262 18.64156597 -22.90948582 14.48586396 -22.1875 9.875 C-20.3987468 5.54189959 -18.19604785 2.59218958 -14.375 -0.125 C-9.18171021 -1.75426739 -5.14628641 -1.81633638 0 0 Z " fill="#515CB3" transform="translate(776.1875,369.125)"/>
<path d="M0 0 C1.31484375 -0.00515625 2.6296875 -0.0103125 3.984375 -0.015625 C7.25 0.25 7.25 0.25 9.25 2.25 C8.404375 2.21519531 7.55875 2.18039062 6.6875 2.14453125 C-0.32783728 1.97711979 -5.33435618 2.46585268 -11.75 5.25 C-12.41 4.92 -13.07 4.59 -13.75 4.25 C-13.75 3.59 -13.75 2.93 -13.75 2.25 C-9.03554614 0.40521371 -5.05015657 -0.01996109 0 0 Z " fill="#434FAE" transform="translate(518.75,540.75)"/>
<path d="M0 0 C1.8871875 0.0309375 1.8871875 0.0309375 3.8125 0.0625 C3.8125 0.3925 3.8125 0.7225 3.8125 1.0625 C2.9771875 1.17464844 2.9771875 1.17464844 2.125 1.2890625 C-5.05518441 2.52618887 -10.37171775 5.48225198 -14.9140625 11.2578125 C-15.33429688 11.85335938 -15.75453125 12.44890625 -16.1875 13.0625 C-15.7007738 8.78520913 -14.60953651 7.04191484 -11.3125 4.3125 C-10.61382812 3.71953125 -9.91515625 3.1265625 -9.1953125 2.515625 C-6.14726741 0.30964684 -3.65420756 -0.05990504 0 0 Z " fill="#3A47AA" transform="translate(327.1875,403.9375)"/>
<path d="M0 0 C0.66 0.33 1.32 0.66 2 1 C-4.15034169 8.48291572 -4.15034169 8.48291572 -8 11 C-8.66 10.67 -9.32 10.34 -10 10 C-6.7 6.7 -3.4 3.4 0 0 Z " fill="#3946A8" transform="translate(463,656)"/>
<path d="M0 0 C3.60296594 -0.41176754 4.78402067 -0.1535853 7.8125 2 C8.534375 2.66 9.25625 3.32 10 4 C3.47692308 3.38461538 3.47692308 3.38461538 1.0625 1.4375 C0.711875 0.963125 0.36125 0.48875 0 0 Z " fill="#424FAE" transform="translate(370,492)"/>
</svg>
